<svg xmlns="http://www.w3.org/2000/svg" width="36" height="27" viewBox="0 0 36 27">
  <g id="credit-card-2-back" transform="translate(0 -4.5)">
    <path id="Path_300" data-name="Path 300" d="M31.5,6.75H4.5A2.25,2.25,0,0,0,2.25,9V27A2.25,2.25,0,0,0,4.5,29.25h27A2.25,2.25,0,0,0,33.75,27V9A2.25,2.25,0,0,0,31.5,6.75ZM4.5,4.5A4.5,4.5,0,0,0,0,9V27a4.5,4.5,0,0,0,4.5,4.5h27A4.5,4.5,0,0,0,36,27V9a4.5,4.5,0,0,0-4.5-4.5Z" fill="#7b7b7b"/>
    <path id="Path_301" data-name="Path 301" d="M24.75,12.375a1.125,1.125,0,0,1,1.125-1.125h4.5A1.125,1.125,0,0,1,31.5,12.375v2.25a1.125,1.125,0,0,1-1.125,1.125h-4.5a1.125,1.125,0,0,1-1.125-1.125ZM2.25,20.25h31.5v4.5H2.25Z" fill="#7b7b7b"/>
  </g>
</svg>
