<svg xmlns="http://www.w3.org/2000/svg" width="37.41" height="32.429" viewBox="0 0 37.41 32.429">
  <path id="home" d="M20.215,1.764a1.247,1.247,0,0,0-1.546,0L.75,15.744,2.3,17.714l2.195-1.721V31.431a2.494,2.494,0,0,0,2.494,2.494h24.94a2.494,2.494,0,0,0,2.494-2.494V16.006l2.195,1.708,1.546-1.959Zm1.734,29.667H16.961V21.455h4.988Zm2.494,0V21.455a2.494,2.494,0,0,0-2.494-2.494H16.961a2.494,2.494,0,0,0-2.494,2.494v9.976H6.985V14.048l12.47-9.715,12.47,9.726V31.431Z" transform="translate(-0.75 -1.495)" fill="#0f1bf2"/>
</svg>
