<svg xmlns="http://www.w3.org/2000/svg" viewBox="0 0 37.41 32.43"><defs><style>.cls-1{fill:#7b7b7b;}</style></defs><g id="Layer_2" data-name="Layer 2"><g id="Layer_1-2" data-name="Layer 1"><path id="home" class="cls-1" d="M19.47.27a1.25,1.25,0,0,0-1.55,0L0,14.25l1.55,2L3.74,14.5V29.94a2.5,2.5,0,0,0,2.5,2.49H31.18a2.49,2.49,0,0,0,2.49-2.49V14.51l2.2,1.71,1.54-2ZM21.2,29.94h-5V20h5Zm2.49,0V20a2.48,2.48,0,0,0-2.49-2.49h-5A2.48,2.48,0,0,0,13.72,20v10H6.24V12.55L18.7,2.84l12.47,9.72V29.94Z"/></g></g></svg>