<svg xmlns="http://www.w3.org/2000/svg" xmlns:xlink="http://www.w3.org/1999/xlink" width="29.928" height="39.082" viewBox="0 0 29.928 39.082">
  <defs>
    <clipPath id="clip-path">
      <rect id="Rectangle_146" data-name="Rectangle 146" width="29.928" height="39.082" fill="#7b7b7b"/>
    </clipPath>
  </defs>
  <g id="Group_247" data-name="Group 247" transform="translate(0 0)">
    <g id="Group_246" data-name="Group 246" transform="translate(0 0)" clip-path="url(#clip-path)">
      <path id="Path_293" data-name="Path 293" d="M16.452,2.306h3.993c0-.23,0-.458,0-.685a1.506,1.506,0,1,1,3,0c0,.217,0,.436,0,.7H23.9q2.181,0,4.364,0a1.516,1.516,0,0,1,1.666,1.666q0,16.674,0,33.347a1.555,1.555,0,0,1-1.758,1.743H1.754A1.546,1.546,0,0,1,0,37.308V4.077A1.539,1.539,0,0,1,1.739,2.326H6.478c0-.254,0-.494,0-.733a1.5,1.5,0,1,1,3-.018c.007.232,0,.464,0,.751h3.993c0-.3,0-.567,0-.836a1.488,1.488,0,0,1,2.976-.007c.007.257,0,.516,0,.822M26.829,35.978V5.442H23.479c-.158,1.448-.506,1.943-1.431,1.933a2,2,0,0,1-1.011-.3,1.65,1.65,0,0,1-.592-1.63H16.49c-.177,1.385-.567,1.938-1.431,1.933a1.966,1.966,0,0,1-.98-.284,1.639,1.639,0,0,1-.6-1.68H9.511c-.128,1.346-.546,1.953-1.4,1.96a1.975,1.975,0,0,1-1.016-.285,1.635,1.635,0,0,1-.614-1.643H3.013V35.978Z" transform="translate(0 0)" fill="#7b7b7b"/>
      <path id="Path_294" data-name="Path 294" d="M12.419,14.39q3.427,0,6.856,0a1.5,1.5,0,1,1,.2,2.991c-.09.008-.181.007-.272.007H5.571a1.508,1.508,0,0,1-1.627-1.207,1.47,1.47,0,0,1,1.192-1.756,3.587,3.587,0,0,1,.582-.035q3.35,0,6.7,0" transform="translate(2.574 9.47)" fill="#7b7b7b"/>
      <path id="Path_295" data-name="Path 295" d="M12.47,8.826c2.31,0,4.62,0,6.931,0a1.481,1.481,0,0,1,1.484,1.922,1.436,1.436,0,0,1-1.2,1.035,2.83,2.83,0,0,1-.5.032q-6.793,0-13.588,0a1.524,1.524,0,0,1-1.61-1.026A1.493,1.493,0,0,1,5.461,8.829c1.661-.01,3.323,0,4.984,0H12.47" transform="translate(2.572 5.807)" fill="#7b7b7b"/>
    </g>
  </g>
</svg>
