<svg xmlns="http://www.w3.org/2000/svg" viewBox="0 0 29.93 29.93"><defs><style>.cls-1{fill:#7b7b7b;fill-rule:evenodd;}</style></defs><g id="Layer_2" data-name="Layer 2"><g id="Layer_1-2" data-name="Layer 1"><path id="Path_9" data-name="Path 9" class="cls-1" d="M27.43,29.93a2.45,2.45,0,0,0,2.5-2.39v-.11c0-2.49-2.5-10-15-10s-15,7.48-15,10a2.45,2.45,0,0,0,2.39,2.5h25ZM2.55,27.43H27.43a6.65,6.65,0,0,0-2.07-4.15C23.73,21.66,20.67,20,15,20S6.2,21.65,4.57,23.27a6.71,6.71,0,0,0-2.08,4.15ZM15,12.47a5,5,0,1,0-5-5,5,5,0,0,0,5,5Zm7.49-5A7.49,7.49,0,1,1,15,0a7.48,7.48,0,0,1,7.49,7.48Z"/></g></g></svg>