<svg id="search" xmlns="http://www.w3.org/2000/svg" width="24" height="24" viewBox="0 0 37.413 37.411">
  <path id="Path_10" data-name="Path 10" d="M15.9,15.9a2.31,2.31,0,0,1,3.269,0l8.892,8.892a2.31,2.31,0,0,1-3.266,3.269L15.9,19.169a2.31,2.31,0,0,1,0-3.269Z" transform="translate(8.675 8.674)" fill="#7b7b7b"/>
  <path id="Path_11" data-name="Path 11" d="M15.012,27.715a12.7,12.7,0,1,0-12.7-12.7,12.7,12.7,0,0,0,12.7,12.7Zm15.012-12.7A15.012,15.012,0,1,1,15.012,0,15.012,15.012,0,0,1,30.024,15.012Z" transform="translate(0 0)" fill="#7b7b7b"/>
</svg>
